<?xml version="1.0" encoding="utf-8"?><svg viewBox="0 0 502.66 502.66" xmlns="http://www.w3.org/2000/svg" xmlns:xlink="http://www.w3.org/1999/xlink"><style>:root>svg{display:none}:root>svg:target{display:block}</style><svg viewBox="0 0 502.664 502.664" xml:space="preserve" id="icon" xmlns="http://www.w3.org/2000/svg"><path d="M153.821 358.226 0 274.337v-46.463l153.821-83.414v54.574L46.636 250.523l107.185 53.431v54.272zm26.273 29.358L282.103 115.08h32.227L212.084 387.584h-31.99zm168.749-29.358v-54.272l107.164-52.999-107.164-52.59v-53.927l153.821 83.522v46.183l-153.821 84.083z"/></svg><svg viewBox="0 0 189 30" id="logo" xmlns="http://www.w3.org/2000/svg"><path fill-rule="evenodd" clip-rule="evenodd" d="M11.614 23.486H0V18.7h13.05l2.92 1.92 2.92-1.92h13.05v4.786H20.326l-4.356 2.866-4.356-2.866Zm4.355-17.55c-4.851 0-8.783 3.929-8.783 8.775H2.395c0-7.49 6.077-13.561 13.574-13.561s13.575 6.072 13.575 13.56h-4.791c0-4.846-3.933-8.775-8.784-8.775Z"/><mask id="ba" maskUnits="userSpaceOnUse" x="41.678" y="0" width="147" height="30"><path d="M41.678 0h147v30h-147z"/><path d="M42.678 23.486V3.126h7.934c3.2 0 5.682.842 7.445 2.526 1.763 1.685 2.644 4.155 2.644 7.41 0 3.254-.862 5.81-2.587 7.667-1.724 1.838-4.197 2.757-7.416 2.757h-8.02Zm3.967-3.733h4.11c1.725 0 3.105-.565 4.14-1.695 1.035-1.13 1.552-2.795 1.552-4.996 0-1.992-.508-3.514-1.524-4.567-1.015-1.072-2.443-1.608-4.283-1.608h-3.995v12.866Zm32.521-4.107c0 .575-.01.967-.029 1.178H66.949c.21 1.167.709 2.067 1.495 2.7.804.63 1.849.947 3.133.947 1.954 0 3.469-.67 4.542-2.01l2.5 2.125c-1.552 2.144-3.995 3.216-7.33 3.216-2.606 0-4.657-.737-6.151-2.211-1.476-1.474-2.214-3.475-2.214-6.002 0-2.47.757-4.452 2.271-5.945 1.514-1.512 3.479-2.269 5.893-2.269 2.626 0 4.628.757 6.008 2.27 1.38 1.492 2.07 3.493 2.07 6.001Zm-8.078-4.968c-1.054 0-1.945.278-2.673.833-.729.536-1.208 1.35-1.438 2.44h8.308c-.134-.937-.546-1.713-1.236-2.325-.69-.632-1.677-.948-2.96-.948Zm16.357 13.21c-2.473 0-4.686-.46-6.64-1.378l1.264-3.13c1.552.938 3.306 1.407 5.26 1.407 1.821 0 2.731-.555 2.731-1.666 0-.46-.24-.814-.718-1.063-.48-.248-1.4-.526-2.76-.832-1.897-.422-3.306-.996-4.225-1.723-.901-.728-1.352-1.79-1.352-3.188 0-1.57.556-2.767 1.668-3.59 1.13-.823 2.663-1.235 4.6-1.235 1.992 0 4.043.412 6.15 1.235l-1.293 3.16a10.261 10.261 0 0 0-4.887-1.207c-1.533 0-2.3.45-2.3 1.35 0 .478.221.842.662 1.091.46.249 1.37.536 2.73.861 1.975.48 3.422 1.073 4.341 1.781.94.69 1.409 1.685 1.409 2.987 0 3.427-2.214 5.14-6.64 5.14Zm9.437-.402V1.718h3.938v7.524c1.418-1.187 3.057-1.78 4.916-1.78 2.012 0 3.507.516 4.484 1.55.996 1.015 1.495 2.719 1.495 5.112v9.362h-3.939V15.1c0-1.493-.287-2.546-.862-3.159-.556-.612-1.37-.918-2.443-.918-1.361 0-2.568.545-3.622 1.636v10.827h-3.967Zm25.059.344c-2.299 0-4.139-.736-5.519-2.21-1.38-1.494-2.069-3.495-2.069-6.003 0-2.489.68-4.47 2.041-5.944 1.36-1.494 3.152-2.24 5.375-2.24 2.051 0 3.66.574 4.829 1.723v-1.35h3.91v15.68h-3.852v-1.522c-1.035 1.245-2.606 1.867-4.715 1.867Zm.863-3.56c1.801 0 3.085-.69 3.852-2.068v-5.198c-.383-.632-.939-1.12-1.667-1.464a5.026 5.026 0 0 0-2.271-.546c-1.284 0-2.319.412-3.105 1.235-.786.804-1.179 1.933-1.179 3.388 0 1.436.393 2.575 1.179 3.418.786.823 1.849 1.235 3.191 1.235Zm11.388 3.216V7.806h3.823v2.04c1.207-1.59 2.836-2.384 4.887-2.384.479 0 .843.047 1.092.143v4.28c-.728-.192-1.361-.288-1.897-.288-1.169 0-2.118.383-2.846 1.149-.728.765-1.092 1.876-1.092 3.33v7.41h-3.967ZM150.28 5.164a2.258 2.258 0 0 1-1.696.718c-.67 0-1.245-.24-1.724-.718a2.35 2.35 0 0 1-.719-1.723c0-.67.24-1.244.719-1.723A2.353 2.353 0 0 1 148.584 1c.671 0 1.237.24 1.696.718.48.479.719 1.053.719 1.723 0 .67-.239 1.244-.719 1.723Zm-3.737 18.322V7.806h4.025v15.68h-4.025Zm7.833 0V7.806h3.823v1.436c1.456-1.187 3.133-1.78 5.03-1.78 2.013 0 3.507.516 4.485 1.55.996 1.015 1.495 2.719 1.495 5.112v9.362h-3.939V15.1c0-1.493-.287-2.546-.862-3.159-.556-.612-1.37-.918-2.443-.918-1.361 0-2.568.545-3.622 1.636v10.827h-3.967ZM179.836 29c-2.607 0-4.753-.345-6.439-1.034V24.32c1.954.88 3.89 1.321 5.806 1.321 1.629 0 2.856-.278 3.68-.833.843-.555 1.265-1.484 1.265-2.785v-1.006c-1.035 1.226-2.607 1.838-4.715 1.838-2.28 0-4.12-.718-5.519-2.153-1.38-1.436-2.07-3.294-2.07-5.572s.681-4.126 2.041-5.542c1.38-1.436 3.172-2.154 5.376-2.154 2.05 0 3.66.574 4.829 1.723v-1.35H188V20.73c0 2.68-.633 4.73-1.898 6.146-1.264 1.417-3.353 2.125-6.266 2.125Zm.46-9.678c1.801 0 3.085-.69 3.852-2.068v-4.25c-.384-.632-.939-1.13-1.668-1.493a5.02 5.02 0 0 0-2.271-.546c-1.264 0-2.299.383-3.104 1.149-.786.766-1.179 1.761-1.179 2.986 0 1.245.393 2.26 1.179 3.045.805.785 1.868 1.177 3.191 1.177Z"/></mask><path d="M42.678 23.486V3.126h7.934c3.2 0 5.682.842 7.445 2.526 1.763 1.685 2.644 4.155 2.644 7.41 0 3.254-.862 5.81-2.587 7.667-1.724 1.838-4.197 2.757-7.416 2.757h-8.02Zm3.967-3.733h4.11c1.725 0 3.105-.565 4.14-1.695 1.035-1.13 1.552-2.795 1.552-4.996 0-1.992-.508-3.514-1.524-4.567-1.015-1.072-2.443-1.608-4.283-1.608h-3.995v12.866Zm32.521-4.107c0 .575-.01.967-.029 1.178H66.949c.21 1.167.709 2.067 1.495 2.7.804.63 1.849.947 3.133.947 1.954 0 3.469-.67 4.542-2.01l2.5 2.125c-1.552 2.144-3.995 3.216-7.33 3.216-2.606 0-4.657-.737-6.151-2.211-1.476-1.474-2.214-3.475-2.214-6.002 0-2.47.757-4.452 2.271-5.945 1.514-1.512 3.479-2.269 5.893-2.269 2.626 0 4.628.757 6.008 2.27 1.38 1.492 2.07 3.493 2.07 6.001Zm-8.078-4.968c-1.054 0-1.945.278-2.673.833-.729.536-1.208 1.35-1.438 2.44h8.308c-.134-.937-.546-1.713-1.236-2.325-.69-.632-1.677-.948-2.96-.948Zm16.357 13.21c-2.473 0-4.686-.46-6.64-1.378l1.264-3.13c1.552.938 3.306 1.407 5.26 1.407 1.821 0 2.731-.555 2.731-1.666 0-.46-.24-.814-.718-1.063-.48-.248-1.4-.526-2.76-.832-1.897-.422-3.306-.996-4.225-1.723-.901-.728-1.352-1.79-1.352-3.188 0-1.57.556-2.767 1.668-3.59 1.13-.823 2.663-1.235 4.6-1.235 1.992 0 4.043.412 6.15 1.235l-1.293 3.16a10.261 10.261 0 0 0-4.887-1.207c-1.533 0-2.3.45-2.3 1.35 0 .478.221.842.662 1.091.46.249 1.37.536 2.73.861 1.975.48 3.422 1.073 4.341 1.781.94.69 1.409 1.685 1.409 2.987 0 3.427-2.214 5.14-6.64 5.14Zm9.437-.402V1.718h3.938v7.524c1.418-1.187 3.057-1.78 4.916-1.78 2.012 0 3.507.516 4.484 1.55.996 1.015 1.495 2.719 1.495 5.112v9.362h-3.939V15.1c0-1.493-.287-2.546-.862-3.159-.556-.612-1.37-.918-2.443-.918-1.361 0-2.568.545-3.622 1.636v10.827h-3.967Zm25.059.344c-2.299 0-4.139-.736-5.519-2.21-1.38-1.494-2.069-3.495-2.069-6.003 0-2.489.68-4.47 2.041-5.944 1.36-1.494 3.152-2.24 5.375-2.24 2.051 0 3.66.574 4.829 1.723v-1.35h3.91v15.68h-3.852v-1.522c-1.035 1.245-2.606 1.867-4.715 1.867Zm.863-3.56c1.801 0 3.085-.69 3.852-2.068v-5.198c-.383-.632-.939-1.12-1.667-1.464a5.026 5.026 0 0 0-2.271-.546c-1.284 0-2.319.412-3.105 1.235-.786.804-1.179 1.933-1.179 3.388 0 1.436.393 2.575 1.179 3.418.786.823 1.849 1.235 3.191 1.235Zm11.388 3.216V7.806h3.823v2.04c1.207-1.59 2.836-2.384 4.887-2.384.479 0 .843.047 1.092.143v4.28c-.728-.192-1.361-.288-1.897-.288-1.169 0-2.118.383-2.846 1.149-.728.765-1.092 1.876-1.092 3.33v7.41h-3.967ZM150.28 5.164a2.258 2.258 0 0 1-1.696.718c-.67 0-1.245-.24-1.724-.718a2.35 2.35 0 0 1-.719-1.723c0-.67.24-1.244.719-1.723A2.353 2.353 0 0 1 148.584 1c.671 0 1.237.24 1.696.718.48.479.719 1.053.719 1.723 0 .67-.239 1.244-.719 1.723Zm-3.737 18.322V7.806h4.025v15.68h-4.025Zm7.833 0V7.806h3.823v1.436c1.456-1.187 3.133-1.78 5.03-1.78 2.013 0 3.507.516 4.485 1.55.996 1.015 1.495 2.719 1.495 5.112v9.362h-3.939V15.1c0-1.493-.287-2.546-.862-3.159-.556-.612-1.37-.918-2.443-.918-1.361 0-2.568.545-3.622 1.636v10.827h-3.967ZM179.836 29c-2.607 0-4.753-.345-6.439-1.034V24.32c1.954.88 3.89 1.321 5.806 1.321 1.629 0 2.856-.278 3.68-.833.843-.555 1.265-1.484 1.265-2.785v-1.006c-1.035 1.226-2.607 1.838-4.715 1.838-2.28 0-4.12-.718-5.519-2.153-1.38-1.436-2.07-3.294-2.07-5.572s.681-4.126 2.041-5.542c1.38-1.436 3.172-2.154 5.376-2.154 2.05 0 3.66.574 4.829 1.723v-1.35H188V20.73c0 2.68-.633 4.73-1.898 6.146-1.264 1.417-3.353 2.125-6.266 2.125Zm.46-9.678c1.801 0 3.085-.69 3.852-2.068v-4.25c-.384-.632-.939-1.13-1.668-1.493a5.02 5.02 0 0 0-2.271-.546c-1.264 0-2.299.383-3.104 1.149-.786.766-1.179 1.761-1.179 2.986 0 1.245.393 2.26 1.179 3.045.805.785 1.868 1.177 3.191 1.177Z"/><path d="M42.678 23.486V3.126h7.934c3.2 0 5.682.842 7.445 2.526 1.763 1.685 2.644 4.155 2.644 7.41 0 3.254-.862 5.81-2.587 7.667-1.724 1.838-4.197 2.757-7.416 2.757h-8.02Zm3.967-3.733h4.11c1.725 0 3.105-.565 4.14-1.695 1.035-1.13 1.552-2.795 1.552-4.996 0-1.992-.508-3.514-1.524-4.567-1.015-1.072-2.443-1.608-4.283-1.608h-3.995v12.866Zm32.521-4.107c0 .575-.01.967-.029 1.178H66.949c.21 1.167.709 2.067 1.495 2.7.804.63 1.849.947 3.133.947 1.954 0 3.469-.67 4.542-2.01l2.5 2.125c-1.552 2.144-3.995 3.216-7.33 3.216-2.606 0-4.657-.737-6.151-2.211-1.476-1.474-2.214-3.475-2.214-6.002 0-2.47.757-4.452 2.271-5.945 1.514-1.512 3.479-2.269 5.893-2.269 2.626 0 4.628.757 6.008 2.27 1.38 1.492 2.07 3.493 2.07 6.001Zm-8.078-4.968c-1.054 0-1.945.278-2.673.833-.729.536-1.208 1.35-1.438 2.44h8.308c-.134-.937-.546-1.713-1.236-2.325-.69-.632-1.677-.948-2.96-.948Zm16.357 13.21c-2.473 0-4.686-.46-6.64-1.378l1.264-3.13c1.552.938 3.306 1.407 5.26 1.407 1.821 0 2.731-.555 2.731-1.666 0-.46-.24-.814-.718-1.063-.48-.248-1.4-.526-2.76-.832-1.897-.422-3.306-.996-4.225-1.723-.901-.728-1.352-1.79-1.352-3.188 0-1.57.556-2.767 1.668-3.59 1.13-.823 2.663-1.235 4.6-1.235 1.992 0 4.043.412 6.15 1.235l-1.293 3.16a10.261 10.261 0 0 0-4.887-1.207c-1.533 0-2.3.45-2.3 1.35 0 .478.221.842.662 1.091.46.249 1.37.536 2.73.861 1.975.48 3.422 1.073 4.341 1.781.94.69 1.409 1.685 1.409 2.987 0 3.427-2.214 5.14-6.64 5.14Zm9.437-.402V1.718h3.938v7.524c1.418-1.187 3.057-1.78 4.916-1.78 2.012 0 3.507.516 4.484 1.55.996 1.015 1.495 2.719 1.495 5.112v9.362h-3.939V15.1c0-1.493-.287-2.546-.862-3.159-.556-.612-1.37-.918-2.443-.918-1.361 0-2.568.545-3.622 1.636v10.827h-3.967Zm25.059.344c-2.299 0-4.139-.736-5.519-2.21-1.38-1.494-2.069-3.495-2.069-6.003 0-2.489.68-4.47 2.041-5.944 1.36-1.494 3.152-2.24 5.375-2.24 2.051 0 3.66.574 4.829 1.723v-1.35h3.91v15.68h-3.852v-1.522c-1.035 1.245-2.606 1.867-4.715 1.867Zm.863-3.56c1.801 0 3.085-.69 3.852-2.068v-5.198c-.383-.632-.939-1.12-1.667-1.464a5.026 5.026 0 0 0-2.271-.546c-1.284 0-2.319.412-3.105 1.235-.786.804-1.179 1.933-1.179 3.388 0 1.436.393 2.575 1.179 3.418.786.823 1.849 1.235 3.191 1.235Zm11.388 3.216V7.806h3.823v2.04c1.207-1.59 2.836-2.384 4.887-2.384.479 0 .843.047 1.092.143v4.28c-.728-.192-1.361-.288-1.897-.288-1.169 0-2.118.383-2.846 1.149-.728.765-1.092 1.876-1.092 3.33v7.41h-3.967ZM150.28 5.164a2.258 2.258 0 0 1-1.696.718c-.67 0-1.245-.24-1.724-.718a2.35 2.35 0 0 1-.719-1.723c0-.67.24-1.244.719-1.723A2.353 2.353 0 0 1 148.584 1c.671 0 1.237.24 1.696.718.48.479.719 1.053.719 1.723 0 .67-.239 1.244-.719 1.723Zm-3.737 18.322V7.806h4.025v15.68h-4.025Zm7.833 0V7.806h3.823v1.436c1.456-1.187 3.133-1.78 5.03-1.78 2.013 0 3.507.516 4.485 1.55.996 1.015 1.495 2.719 1.495 5.112v9.362h-3.939V15.1c0-1.493-.287-2.546-.862-3.159-.556-.612-1.37-.918-2.443-.918-1.361 0-2.568.545-3.622 1.636v10.827h-3.967ZM179.836 29c-2.607 0-4.753-.345-6.439-1.034V24.32c1.954.88 3.89 1.321 5.806 1.321 1.629 0 2.856-.278 3.68-.833.843-.555 1.265-1.484 1.265-2.785v-1.006c-1.035 1.226-2.607 1.838-4.715 1.838-2.28 0-4.12-.718-5.519-2.153-1.38-1.436-2.07-3.294-2.07-5.572s.681-4.126 2.041-5.542c1.38-1.436 3.172-2.154 5.376-2.154 2.05 0 3.66.574 4.829 1.723v-1.35H188V20.73c0 2.68-.633 4.73-1.898 6.146-1.264 1.417-3.353 2.125-6.266 2.125Zm.46-9.678c1.801 0 3.085-.69 3.852-2.068v-4.25c-.384-.632-.939-1.13-1.668-1.493a5.02 5.02 0 0 0-2.271-.546c-1.264 0-2.299.383-3.104 1.149-.786.766-1.179 1.761-1.179 2.986 0 1.245.393 2.26 1.179 3.045.805.785 1.868 1.177 3.191 1.177Z" mask="url(#ba)"/></svg></svg>